HIERARCHY
ROOT Hips
{
	OFFSET 0.00000 0.00000 0.00000
	CHANNELS 6 Xposition Yposition Zposition Zrotation Yrotation Xrotation 
	JOINT LHipJoint
	{
		OFFSET 0 0 0
		CHANNELS 3 Zrotation Yrotation Xrotation
		JOINT LeftUpLeg
		{
			OFFSET 1.26600 -1.82114 0.91038
			CHANNELS 3 Zrotation Yrotation Xrotation
			JOINT LeftLeg
			{
				OFFSET 2.50076 -6.87080 0.00000
				CHANNELS 3 Zrotation Yrotation Xrotation
				JOINT LeftFoot
				{
					OFFSET 2.57364 -7.07102 0.00000
					CHANNELS 3 Zrotation Yrotation Xrotation
					JOINT LeftToeBase
					{
						OFFSET 0.13572 -0.37290 1.97004
						CHANNELS 3 Zrotation Yrotation Xrotation
						End Site
						{
							OFFSET 0.00000 -0.00000 1.01383
						}
					}
				}
			}
		}
	}
	JOINT RHipJoint
	{
		OFFSET 0 0 0
		CHANNELS 3 Zrotation Yrotation Xrotation
		JOINT RightUpLeg
		{
			OFFSET -1.20803 -1.82114 0.91038
			CHANNELS 3 Zrotation Yrotation Xrotation
			JOINT RightLeg
			{
				OFFSET -2.54916 -7.00377 0.00000
				CHANNELS 3 Zrotation Yrotation Xrotation
				JOINT RightFoot
				{
					OFFSET -2.56374 -7.04382 0.00000
					CHANNELS 3 Zrotation Yrotation Xrotation
					JOINT RightToeBase
					{
						OFFSET -0.23520 -0.64621 2.09921
						CHANNELS 3 Zrotation Yrotation Xrotation
						End Site
						{
							OFFSET -0.00000 -0.00000 1.10065
						}
					}
				}
			}
		}
	}
	JOINT LowerBack
	{
		OFFSET 0 0 0
		CHANNELS 3 Zrotation Yrotation Xrotation
		JOINT Spine
		{
			OFFSET 0.05492 2.10797 -0.12074
			CHANNELS 3 Zrotation Yrotation Xrotation
			JOINT Spine1
			{
				OFFSET 0.04577 2.11592 -0.04483
				CHANNELS 3 Zrotation Yrotation Xrotation
				JOINT Neck
				{
					OFFSET 0 0 0
					CHANNELS 3 Zrotation Yrotation Xrotation
					JOINT Neck1
					{
						OFFSET -0.10759 1.80167 0.15770
						CHANNELS 3 Zrotation Yrotation Xrotation
						JOINT Head
						{
							OFFSET 0.09237 1.77509 -0.40848
							CHANNELS 3 Zrotation Yrotation Xrotation
							End Site
							{
								OFFSET 0.03805 1.84093 -0.15754
							}
						}
					}
				}
				JOINT LeftShoulder
				{
					OFFSET 0 0 0
					CHANNELS 3 Zrotation Yrotation Xrotation
					JOINT LeftArm
					{
						OFFSET 3.42372 1.09575 -0.28209
						CHANNELS 3 Zrotation Yrotation Xrotation
						JOINT LeftForeArm
						{
							OFFSET 4.95681 -0.00000 0.00000
							CHANNELS 3 Zrotation Yrotation Xrotation
							JOINT LeftHand
							{
								OFFSET 3.40915 -0.00000 0.00000
								CHANNELS 3 Zrotation Yrotation Xrotation
								JOINT LeftFingerBase
								{
									OFFSET 0 0 0
									CHANNELS 3 Zrotation Yrotation Xrotation
									JOINT LeftHandIndex1
									{
										OFFSET 0.61640 -0.00000 0.00000
										CHANNELS 3 Zrotation Yrotation Xrotation
										End Site
										{
											OFFSET 0.49696 -0.00000 0.00000
										}
									}
								}
								JOINT LThumb
								{
									OFFSET 0 0 0
									CHANNELS 3 Zrotation Yrotation Xrotation
									End Site
									{
										OFFSET 0.50455 -0.00000 0.50455
									}
								}
							}
						}
					}
				}
				JOINT RightShoulder
				{
					OFFSET 0 0 0
					CHANNELS 3 Zrotation Yrotation Xrotation
					JOINT RightArm
					{
						OFFSET -3.24731 1.15872 -0.32221
						CHANNELS 3 Zrotation Yrotation Xrotation
						JOINT RightForeArm
						{
							OFFSET -5.35200 -0.00000 0.00000
							CHANNELS 3 Zrotation Yrotation Xrotation
							JOINT RightHand
							{
								OFFSET -3.43721 -0.00000 -0.00000
								CHANNELS 3 Zrotation Yrotation Xrotation
								JOINT RightFingerBase
								{
									OFFSET 0 0 0
									CHANNELS 3 Zrotation Yrotation Xrotation
									JOINT RightHandIndex1
									{
										OFFSET -0.72009 -0.00000 0.00000
										CHANNELS 3 Zrotation Yrotation Xrotation
										End Site
										{
											OFFSET -0.58056 -0.00000 0.00000
										}
									}
								}
								JOINT RThumb
								{
									OFFSET 0 0 0
									CHANNELS 3 Zrotation Yrotation Xrotation
									End Site
									{
										OFFSET -0.58942 -0.00000 0.58942
									}
								}
							}
						}
					}
				}
			}
		}
	}
}
MOTION
Frames: 9
Frame Time: .0083333
-13.6028 17.1773 8.1376 0 0 0 0 0 0 -21 0 0 0 0 0 0 0 0 0 0 0 0 0 0 21 0 0 0 0 0 0 0 0 0 0 0 0 0 0 0 0 0 0 0 0 0 0 -16 0 0 21 0 0 11 0 0 0 -8 0 0 0 0 0 0 0 0 0 0 0 0 0 0 0 0 0 0 0 0 8 0 0 0 0 0 0 0 0 0 0 0 0 0 0 0 0 0
-13.6028 17.1773 8.1376 -4.3293 -3.6300 2.4552 0.0000 0.0000 0.0000 -14.0855 -0.4507 -12.7167 3.9862 12.1420 36.2362 1.6839 2.5251 -25.5344 0.3228 -3.6521 -10.1000 0.0000 0.0000 0.0000 26.3448 -1.8906 -16.7762 -4.3657 -12.6318 38.0053 -1.6300 8.8398 -22.8736 -0.8220 -5.7847 16.1609 1.9284 -2.8719 1.9289 3.3866 -3.7354 -0.5037 2.5154 -1.8715 -1.4943 -16.0270 -12.2109 -5.6293 8.0224 -16.5486 19.5865 3.4400 -8.3632 9.0958 0.0000 -0.0000 0.0000 -90.7536 3.4360 12.2230 15.0227 -24.1777 -3.2352 -0.0000 -0.0000 0.3305 18.7760 18.3191 6.0991 -7.1250 0.0000 -0.0000 -9.1427 49.0366 -0.9171 0.0000 -0.0000 0.0000 86.3168 -3.3998 18.5049 -14.0060 22.7433 -2.8304 0.0000 -0.0000 -6.0731 -21.5132 14.4413 -5.6143 7.1250 -0.0000 -0.0000 4.0630 -14.5346 2.9208
-13.6145 17.1750 8.1446 -4.2493 -3.6330 2.5941 0.0000 0.0000 0.0000 -14.1185 -0.5899 -12.8154 3.9797 12.1334 36.2054 1.7097 2.4216 -25.6750 0.2831 -3.4220 -9.4560 0.0000 0.0000 0.0000 26.3300 -1.6498 -16.8824 -4.3760 -12.6446 38.0524 -1.6490 8.5895 -23.0022 -0.8156 -5.7629 16.0979 1.7972 -2.8093 1.8171 3.3706 -3.6625 -0.4364 2.5608 -1.8343 -1.3572 -15.7649 -12.0295 -6.3721 7.8113 -16.2181 20.2672 3.3296 -8.1865 9.3806 -0.0000 -0.0000 0.0000 -90.7157 3.1951 12.2650 14.9780 -24.1155 -3.2170 -0.0000 -0.0000 0.1342 19.0371 18.3628 6.2039 -7.1250 0.0000 -0.0000 -8.9059 49.1212 -0.9117 -0.0000 -0.0000 0.0000 86.3306 -3.2221 18.4985 -14.1216 22.9083 -2.8753 0.0000 -0.0000 -6.2523 -21.3288 13.7802 -5.3137 7.1250 -0.0000 -0.0000 4.1578 -15.2557 2.9251
-13.6338 17.1776 8.1539 -4.3176 -3.8475 2.8306 0.0000 0.0000 0.0000 -13.9731 -0.5769 -13.0514 3.9854 12.1409 36.2322 1.7070 2.5354 -25.7052 0.2756 -3.3765 -9.3287 0.0000 0.0000 0.0000 26.5214 -0.9488 -16.8447 -4.3704 -12.6377 38.0268 -1.6801 8.2978 -23.2172 -0.9133 -6.0894 17.0439 1.7271 -2.6539 1.6419 3.4176 -3.4631 -0.4470 2.6334 -1.7341 -1.2689 -15.3640 -11.8524 -7.0548 7.2997 -15.8676 21.1005 3.1036 -8.0211 9.6722 -0.0000 -0.0000 0.0000 -90.6897 3.0489 12.2724 14.9339 -24.0539 -3.1989 -0.0000 -0.0000 0.2172 19.0733 18.5170 6.2664 -7.1250 0.0000 -0.0000 -8.9176 49.2850 -0.9491 -0.0000 -0.0000 0.0000 86.3194 -3.2269 18.4699 -14.2532 23.0956 -2.9267 0.0000 -0.0000 -6.4048 -21.2080 12.8691 -4.9395 7.1250 -0.0000 -0.0000 4.2033 -16.2345 2.8684
-13.6507 17.1801 8.1636 -4.4214 -4.0314 2.9276 0.0000 0.0000 0.0000 -13.8135 -0.4931 -13.1091 3.9857 12.1414 36.2339 1.6911 2.7130 -25.6688 0.3073 -3.5638 -9.8525 0.0000 0.0000 0.0000 26.7132 -0.5792 -16.7610 -4.3702 -12.6374 38.0259 -1.7073 8.3035 -23.4079 -0.9822 -6.3084 17.6818 1.6625 -2.5664 1.6237 3.5150 -3.3450 -0.5189 2.7682 -1.6742 -1.3269 -15.0668 -11.5224 -7.3882 6.7960 -15.3350 21.8701 2.9449 -7.7931 9.8716 -0.0000 0.0000 0.0000 -90.7475 3.1020 12.1937 14.8689 -23.9632 -3.1725 -0.0000 -0.0000 0.0841 19.2999 18.4285 6.3171 -7.1250 0.0000 -0.0000 -8.6735 49.2288 -0.9107 -0.0000 0.0000 0.0000 86.2501 -3.2202 18.3426 -14.2166 23.0435 -2.9124 0.0000 -0.0000 -6.3258 -21.2642 13.5552 -5.2117 7.1250 -0.0000 -0.0000 4.1924 -15.5011 2.9274
-13.6587 17.1813 8.1746 -4.3315 -4.0450 2.9208 0.0000 0.0000 0.0000 -13.8914 -0.4322 -13.0611 3.9889 12.1456 36.2491 1.6948 2.7428 -25.7091 0.3609 -3.8593 -10.6812 0.0000 0.0000 0.0000 26.6603 -0.7844 -16.7989 -4.3665 -12.6327 38.0087 -1.7145 8.1992 -23.4583 -0.8226 -5.7869 16.1674 1.5262 -2.5641 1.5570 3.5286 -3.3482 -0.4967 2.8540 -1.6750 -1.2580 -14.9905 -11.1843 -7.7270 6.6455 -14.8296 22.5387 2.9355 -7.5630 10.0939 0.0000 -0.0000 0.0000 -90.7637 3.1185 12.2332 14.8353 -23.9162 -3.1589 -0.0000 0.0000 -0.3336 19.4499 18.4063 6.3624 -7.1250 0.0000 -0.0000 -8.5229 49.2290 -0.8947 0.0000 -0.0000 0.0000 86.2266 -2.9893 18.1756 -14.1163 22.9008 -2.8732 0.0000 -0.0000 -6.1433 -21.4099 14.3185 -5.5387 7.1250 -0.0000 -0.0000 4.1274 -14.6761 2.9548
-13.6607 17.1802 8.1876 -4.3515 -3.9519 3.0315 0.0000 0.0000 0.0000 -13.8430 -0.4739 -13.1580 3.9903 12.1475 36.2558 1.7071 2.6830 -25.7706 0.3613 -3.8616 -10.6875 0.0000 0.0000 0.0000 26.7004 -1.0532 -16.9815 -4.3654 -12.6314 38.0038 -1.7118 8.0658 -23.4401 -0.6941 -5.3258 14.8402 1.6296 -2.5724 1.3514 3.5363 -3.3665 -0.4571 2.7926 -1.6853 -1.1068 -14.8513 -10.8626 -8.1257 6.4796 -14.3389 23.1724 2.9077 -7.3351 10.3133 -0.0000 -0.0000 0.0000 -90.7881 2.9986 12.1225 14.7765 -23.8338 -3.1351 -0.0000 0.0000 -0.4888 19.4823 18.2814 6.3323 -7.1250 0.0000 -0.0000 -8.4551 49.1051 -0.8616 -0.0000 -0.0000 0.0000 86.2409 -2.7616 18.0676 -13.9728 22.6959 -2.8176 0.0000 -0.0000 -6.2287 -21.6473 14.8266 -5.7991 7.1250 -0.0000 -0.0000 3.9916 -14.1108 2.9052
-13.6621 17.1772 8.1994 -4.6135 -3.8388 3.1430 0.0000 0.0000 0.0000 -13.5396 -0.5877 -13.2115 3.9906 12.1478 36.2569 1.7190 2.6819 -25.8559 0.3618 -3.8640 -10.6944 0.0000 0.0000 0.0000 26.9419 -1.1634 -17.0722 -4.3682 -12.6349 38.0166 -1.7032 8.4427 -23.3802 -0.8139 -5.7569 16.0806 1.9806 -2.5700 1.3924 3.6498 -3.3476 -0.6058 2.7207 -1.6776 -1.2967 -14.7015 -10.4169 -8.1065 6.1369 -13.6912 23.8153 2.8640 -7.0670 10.4280 -0.0000 0.0000 0.0000 -90.9187 3.1635 11.8576 14.7331 -23.7730 -3.1176 -0.0000 0.0000 -0.2513 19.1429 18.3519 6.2372 -7.1250 0.0000 -0.0000 -8.8013 49.1260 -0.9019 -0.0000 0.0000 0.0000 86.1147 -3.0213 18.0679 -13.9379 22.6459 -2.8042 0.0000 -0.0000 -6.4433 -21.7803 15.7130 -6.1761 7.1250 -0.0000 -0.0000 3.9508 -13.1547 2.9552
-13.6645 17.1736 8.2133 -4.5434 -3.6682 3.1447 0.0000 0.0000 0.0000 -13.6036 -0.5613 -13.1960 3.9956 12.1546 36.2811 1.7308 2.4981 -25.8596 0.3496 -3.7990 -10.5119 0.0000 0.0000 0.0000 26.7943 -1.6114 -17.1762 -4.3686 -12.6354 38.0184 -1.6928 9.0893 -23.3208 -0.9412 -6.1793 17.3055 2.0143 -2.6044 1.4781 3.6511 -3.3843 -0.7157 2.7124 -1.6959 -1.4585 -14.4687 -9.9566 -8.2141 5.8221 -13.0254 24.5198 2.8122 -6.7795 10.5869 -0.0000 0.0000 0.0000 -90.9589 3.3385 11.7431 14.7295 -23.7679 -3.1161 -0.0000 0.0000 -0.0755 18.7162 18.7681 6.2209 -7.1250 0.0000 -0.0000 -9.3375 49.4876 -1.0413 -0.0000 0.0000 0.0000 86.0240 -3.2154 18.0514 -14.0040 22.7404 -2.8296 0.0000 -0.0000 -6.4574 -21.7489 15.8023 -6.2002 7.1250 -0.0000 -0.0000 3.9771 -13.0638 2.9826
